<svg width="31" height="31" viewBox="0 0 31 31" fill="none" xmlns="http://www.w3.org/2000/svg">
<path fill-rule="evenodd" clip-rule="evenodd" d="M0.916992 6.74984C0.916992 5.20274 1.53157 3.71901 2.62554 2.62505C3.7195 1.53109 5.20323 0.916504 6.75033 0.916504H24.2503C25.7974 0.916504 27.2812 1.53109 28.3751 2.62505C29.4691 3.71901 30.0837 5.20274 30.0837 6.74984V24.2498C30.0837 25.7969 29.4691 27.2807 28.3751 28.3746C27.2812 29.4686 25.7974 30.0832 24.2503 30.0832H6.75033C5.20323 30.0832 3.7195 29.4686 2.62554 28.3746C1.53157 27.2807 0.916992 25.7969 0.916992 24.2498V6.74984ZM6.75033 3.83317C5.97678 3.83317 5.23491 4.14046 4.68793 4.68744C4.14095 5.23442 3.83366 5.97629 3.83366 6.74984V24.2498C3.83366 25.0234 4.14095 25.7653 4.68793 26.3122C5.23491 26.8592 5.97678 27.1665 6.75033 27.1665H15.5003V16.9582H14.042C13.6552 16.9582 13.2843 16.8045 13.0108 16.531C12.7373 16.2575 12.5837 15.8866 12.5837 15.4998C12.5837 15.1131 12.7373 14.7421 13.0108 14.4686C13.2843 14.1952 13.6552 14.0415 14.042 14.0415H15.5003V11.854C15.5003 10.5003 16.0381 9.20203 16.9953 8.24481C17.9525 7.2876 19.2508 6.74984 20.6045 6.74984H21.4795C21.8663 6.74984 22.2372 6.90348 22.5107 7.17697C22.7842 7.45046 22.9378 7.8214 22.9378 8.20817C22.9378 8.59495 22.7842 8.96588 22.5107 9.23937C22.2372 9.51286 21.8663 9.6665 21.4795 9.6665H20.6045C20.3172 9.6665 20.0328 9.72309 19.7674 9.83302C19.502 9.94295 19.2608 10.1041 19.0577 10.3072C18.8546 10.5103 18.6934 10.7515 18.5835 11.0169C18.4736 11.2823 18.417 11.5667 18.417 11.854V14.0415H21.4795C21.8663 14.0415 22.2372 14.1952 22.5107 14.4686C22.7842 14.7421 22.9378 15.1131 22.9378 15.4998C22.9378 15.8866 22.7842 16.2575 22.5107 16.531C22.2372 16.8045 21.8663 16.9582 21.4795 16.9582H18.417V27.1665H24.2503C25.0239 27.1665 25.7657 26.8592 26.3127 26.3122C26.8597 25.7653 27.167 25.0234 27.167 24.2498V6.74984C27.167 5.97629 26.8597 5.23442 26.3127 4.68744C25.7657 4.14046 25.0239 3.83317 24.2503 3.83317H6.75033Z" fill="#293750"/>
</svg>
