<svg width="31" height="31" viewBox="0 0 31 31" fill="none" xmlns="http://www.w3.org/2000/svg">
<path fill-rule="evenodd" clip-rule="evenodd" d="M0.916992 6.74984C0.916992 5.20274 1.53157 3.71901 2.62554 2.62505C3.7195 1.53109 5.20323 0.916504 6.75033 0.916504H24.2503C25.7974 0.916504 27.2812 1.53109 28.3751 2.62505C29.4691 3.71901 30.0837 5.20274 30.0837 6.74984V24.2498C30.0837 25.7969 29.4691 27.2807 28.3751 28.3746C27.2812 29.4686 25.7974 30.0832 24.2503 30.0832H6.75033C5.20323 30.0832 3.7195 29.4686 2.62554 28.3746C1.53157 27.2807 0.916992 25.7969 0.916992 24.2498V6.74984ZM6.75033 3.83317C5.97678 3.83317 5.23491 4.14046 4.68793 4.68744C4.14095 5.23442 3.83366 5.97629 3.83366 6.74984V24.2498C3.83366 25.0234 4.14095 25.7653 4.68793 26.3122C5.23491 26.8592 5.97678 27.1665 6.75033 27.1665H24.2503C25.0239 27.1665 25.7657 26.8592 26.3127 26.3122C26.8597 25.7653 27.167 25.0234 27.167 24.2498V6.74984C27.167 5.97629 26.8597 5.23442 26.3127 4.68744C25.7657 4.14046 25.0239 3.83317 24.2503 3.83317H6.75033ZM15.5003 11.1248C14.34 11.1248 13.2272 11.5858 12.4067 12.4062C11.5863 13.2267 11.1253 14.3395 11.1253 15.4998C11.1253 16.6602 11.5863 17.773 12.4067 18.5934C13.2272 19.4139 14.34 19.8748 15.5003 19.8748C16.6606 19.8748 17.7734 19.4139 18.5939 18.5934C19.4144 17.773 19.8753 16.6602 19.8753 15.4998C19.8753 14.3395 19.4144 13.2267 18.5939 12.4062C17.7734 11.5858 16.6606 11.1248 15.5003 11.1248ZM8.20866 15.4998C8.20866 13.566 8.97689 11.7113 10.3443 10.3439C11.7118 8.9764 13.5665 8.20817 15.5003 8.20817C17.4342 8.20817 19.2889 8.9764 20.6563 10.3439C22.0238 11.7113 22.792 13.566 22.792 15.4998C22.792 17.4337 22.0238 19.2884 20.6563 20.6558C19.2889 22.0233 17.4342 22.7915 15.5003 22.7915C13.5665 22.7915 11.7118 22.0233 10.3443 20.6558C8.97689 19.2884 8.20866 17.4337 8.20866 15.4998V15.4998ZM23.5212 9.6665C24.1013 9.6665 24.6577 9.43604 25.068 9.0258C25.4782 8.61557 25.7087 8.05917 25.7087 7.479C25.7087 6.89884 25.4782 6.34244 25.068 5.93221C24.6577 5.52197 24.1013 5.2915 23.5212 5.2915C22.941 5.2915 22.3846 5.52197 21.9744 5.93221C21.5641 6.34244 21.3337 6.89884 21.3337 7.479C21.3337 8.05917 21.5641 8.61557 21.9744 9.0258C22.3846 9.43604 22.941 9.6665 23.5212 9.6665Z" fill="#293750"/>
</svg>
